<svg width="22" height="22" viewBox="0 0 22 22" version="1.1" xmlns="http://www.w3.org/2000/svg" xmlns:xlink="http://www.w3.org/1999/xlink">
<title>svg</title>
<desc>Created using Figma</desc>
<g id="Canvas" transform="translate(-1650 -855)">
<g id="svg">
<g id="Shape">
<use xlink:href="#path0_fill" transform="translate(1650 855)" fill="#A0B0B9"/>
</g>
</g>
</g>
<defs>
<path id="path0_fill" fill-rule="evenodd" d="M 0 11C 0 4.92798 4.91699 0 10.989 0C 17.072 0 22 4.92798 22 11C 22 17.072 17.072 22 10.989 22C 4.91699 22 0 17.072 0 11ZM 15.3669 6.60004L 18.6119 6.60004C 17.556 4.78503 15.873 3.37701 13.849 2.68402C 14.509 3.90503 15.015 5.22504 15.3669 6.60004ZM 11 2.24402C 11.9131 3.56403 12.6281 5.02704 13.1011 6.60004L 8.89905 6.60004C 9.37207 5.02704 10.087 3.56403 11 2.24402ZM 2.19995 11C 2.19995 11.759 2.30994 12.496 2.48596 13.2L 6.20398 13.2C 6.11597 12.474 6.04993 11.748 6.04993 11C 6.04993 10.252 6.11597 9.526 6.20398 8.79999L 2.48596 8.79999C 2.30994 9.50397 2.19995 10.241 2.19995 11ZM 3.38794 15.4L 6.63293 15.4C 6.98499 16.775 7.49097 18.095 8.15088 19.316C 6.12695 18.623 4.44397 17.226 3.38794 15.4ZM 3.38794 6.60004L 6.63293 6.60004C 6.98499 5.22504 7.49097 3.90503 8.15088 2.68402C 6.12695 3.37701 4.44397 4.77405 3.38794 6.60004ZM 11 19.756C 10.087 18.436 9.37207 16.973 8.89905 15.4L 13.1011 15.4C 12.6281 16.973 11.9131 18.436 11 19.756ZM 8.25 11C 8.25 11.748 8.32703 12.474 8.42603 13.2L 13.574 13.2C 13.673 12.474 13.75 11.748 13.75 11C 13.75 10.252 13.673 9.51501 13.574 8.79999L 8.42603 8.79999C 8.32703 9.51501 8.25 10.252 8.25 11ZM 13.849 19.316C 14.509 18.095 15.015 16.775 15.3669 15.4L 18.6119 15.4C 17.556 17.215 15.873 18.623 13.849 19.316ZM 15.9501 11C 15.9501 11.748 15.884 12.474 15.796 13.2L 19.514 13.2C 19.6901 12.496 19.8 11.759 19.8 11C 19.8 10.241 19.6901 9.50397 19.514 8.79999L 15.796 8.79999C 15.884 9.526 15.9501 10.252 15.9501 11Z"/>
</defs>
</svg>
