<svg width="12" height="12" viewBox="0 0 12 12" version="1.1" xmlns="http://www.w3.org/2000/svg" xmlns:xlink="http://www.w3.org/1999/xlink">
<title>Shape</title>
<desc>Created using Figma</desc>
<g id="Canvas" transform="translate(-6746 -518)">
<g id="Shape">
<use xlink:href="#path0_fill" transform="translate(6746 518.154)" fill="#2196F3"/>
</g>
</g>
<defs>
<path id="path0_fill" fill-rule="evenodd" d="M 6 0C 2.69189 0 0 2.62299 0 5.84601C 0 9.06903 2.69189 11.692 6 11.692C 9.30811 11.692 12 9.06903 12 5.84601C 12 2.62299 9.30811 0 6 0ZM 6 0.922974C 8.7959 0.922974 11.0527 3.12195 11.0527 5.84595C 11.0527 8.56995 8.7959 10.769 6 10.769C 3.20361 10.769 0.946777 8.56995 0.946777 5.84595C 0.946777 3.12195 3.20361 0.922974 6 0.922974ZM 5.52588 2.15302C 5.53027 1.89532 5.74219 1.68964 6 1.69299C 6.12402 1.69037 6.24365 1.73816 6.33252 1.82483C 6.42139 1.91144 6.47217 2.02985 6.47412 2.15399L 6.47412 5.58197L 9.24707 7.13898C 9.33154 7.18524 9.39844 7.25671 9.43896 7.34241C 9.4502 7.36639 9.45947 7.39148 9.4668 7.41748C 9.4834 7.47839 9.48682 7.54144 9.47803 7.60266C 9.46924 7.66083 9.44971 7.71741 9.41895 7.76898C 9.28418 7.99005 8.99805 8.06439 8.77295 7.93701L 5.7627 6.245C 5.62207 6.16602 5.52588 6.01599 5.52588 5.84601L 5.52588 2.15302Z"/>
</defs>
</svg>
