<svg width="16" height="8" viewBox="0 0 16 8" version="1.1" xmlns="http://www.w3.org/2000/svg" xmlns:xlink="http://www.w3.org/1999/xlink">
<title>Combined Shape</title>
<desc>Created using Figma</desc>
<g id="Canvas" transform="translate(-6109 -672)">
<g id="Combined Shape">
<use xlink:href="#path0_fill" transform="translate(6109 672)" fill="#A0B0B9"/>
</g>
</g>
<defs>
<path id="path0_fill" fill-rule="evenodd" d="M 14.8984 0C 15.5229 0 15.8002 0.266479 15.9277 0.499512C 16.2905 1.258 15.2216 2.11993 14.1 2.67358L 11.7011 3.89105L 6.92523 6.31506L 3.64642 7.97821C 3.57464 8.01465 3.48724 8.0047 3.42571 7.95325L 0.0682929 5.13135C 0.0433906 5.11047 0.0248359 5.08423 0.0131171 5.0553C 0.00188666 5.02667 -0.00250787 4.99542 0.00139838 4.96399C 0.0087226 4.90088 0.0477851 4.84546 0.105891 4.81604L 0.370051 4.67761C 0.400812 4.66187 0.434992 4.65466 0.469172 4.65601C 0.498957 4.65717 0.528254 4.66479 0.555109 4.67883L 3.61663 5.14185C 3.61663 5.14185 4.62347 4.62683 6.00433 3.92969C 5.89251 3.82922 5.70404 3.65283 5.69818 3.65729L 4.30999 2.37567C 3.81487 1.91864 3.3554 1.49506 3.26263 1.41077C 3.43011 1.36139 4.01312 1.08698 4.07415 1.08698C 4.1347 1.08698 8.58978 2.62878 8.58978 2.62878L 8.49359 2.68134C 10.5751 1.64551 12.7065 0.608582 13.4975 0.302124C 13.5278 0.289795 14.2421 0 14.8984 0Z"/>
</defs>
</svg>
