<svg width="18" height="14" viewBox="0 0 18 14" version="1.1" xmlns="http://www.w3.org/2000/svg" xmlns:xlink="http://www.w3.org/1999/xlink">
<title>Filters Button</title>
<desc>Created using Figma</desc>
<g id="Canvas" transform="translate(-6112 -259)">
<g id="Filters Button">
<g id="Combined Shape">
<use xlink:href="#path0_fill" transform="translate(6112 259)" fill="#FFFFFF"/>
</g>
</g>
</g>
<defs>
<path id="path0_fill" fill-rule="evenodd" d="M 5.64494 11L 0.993397 11C 0.444945 11 0 11.4477 0 12C 0 12.5561 0.444758 13 0.993397 13L 5.64494 13C 5.55064 12.6831 5.5 12.3475 5.5 12C 5.5 11.6525 5.55064 11.3169 5.64494 11ZM 12.3551 11L 17.0066 11C 17.5552 11 18 11.4439 18 12C 18 12.5523 17.5551 13 17.0066 13L 12.3551 13C 12.4494 12.6831 12.5 12.3475 12.5 12C 12.5 11.6525 12.4494 11.3169 12.3551 11ZM 12.6449 6L 0.993397 6C 0.444945 6 0 6.44772 0 7C 0 7.55614 0.444758 8 0.993397 8L 12.6449 8C 12.5506 7.68315 12.5 7.34749 12.5 7C 12.5 6.65251 12.5506 6.31685 12.6449 6ZM 2.64494 1L 0.993397 1C 0.444945 1 0 1.44772 0 2C 0 2.55614 0.444758 3 0.993397 3L 2.64494 3C 2.55064 2.68315 2.5 2.34749 2.5 2C 2.5 1.65251 2.55064 1.31685 2.64494 1ZM 9.35506 1L 17.0066 1C 17.5552 1 18 1.44386 18 2C 18 2.55228 17.5551 3 17.0066 3L 9.35506 3C 9.44936 2.68315 9.5 2.34749 9.5 2C 9.5 1.65251 9.44936 1.31685 9.35506 1ZM 6 4C 7.10457 4 8 3.10457 8 2C 8 0.89543 7.10457 0 6 0C 4.89543 0 4 0.89543 4 2C 4 3.10457 4.89543 4 6 4ZM 16 9C 17.1046 9 18 8.10457 18 7C 18 5.89543 17.1046 5 16 5C 14.8954 5 14 5.89543 14 7C 14 8.10457 14.8954 9 16 9ZM 9 14C 10.1046 14 11 13.1046 11 12C 11 10.8954 10.1046 10 9 10C 7.89543 10 7 10.8954 7 12C 7 13.1046 7.89543 14 9 14Z"/>
</defs>
</svg>
