<svg width="18" height="18" viewBox="0 0 18 18" version="1.1" xmlns="http://www.w3.org/2000/svg" xmlns:xlink="http://www.w3.org/1999/xlink">
<title>checked</title>
<desc>Created using Figma</desc>
<g id="Canvas" transform="translate(-4311 -320)">
<g id="checked">
<g id="Rectangle 5">
<use xlink:href="#path0_fill" transform="translate(4311 320)" fill="#E1F8FF"/>
<mask id="mask0_outline_ins">
<use xlink:href="#path0_fill" fill="white" transform="translate(4311 320)"/>
</mask>
<g mask="url(#mask0_outline_ins)">
<use xlink:href="#path1_stroke_2x" transform="translate(4311 320)" fill="#00ACE2"/>
</g>
</g>
<g id="Shape">
<use xlink:href="#path2_stroke" transform="translate(4317 327)" fill="#00ACE2"/>
</g>
</g>
</g>
<defs>
<path id="path0_fill" fill-rule="evenodd" d="M 0 6.4C 0 4.15979 0 3.03969 0.435974 2.18404C 0.819467 1.43139 1.43139 0.819467 2.18404 0.435974C 3.03969 0 4.15979 0 6.4 0L 11.6 0C 13.8402 0 14.9603 0 15.816 0.435974C 16.5686 0.819467 17.1805 1.43139 17.564 2.18404C 18 3.03969 18 4.15979 18 6.4L 18 11.6C 18 13.8402 18 14.9603 17.564 15.816C 17.1805 16.5686 16.5686 17.1805 15.816 17.564C 14.9603 18 13.8402 18 11.6 18L 6.4 18C 4.15979 18 3.03969 18 2.18404 17.564C 1.43139 17.1805 0.819467 16.5686 0.435974 15.816C 0 14.9603 0 13.8402 0 11.6L 0 6.4Z"/>
<path id="path1_stroke_2x" d="M 17.564 15.816L 18.455 16.27L 17.564 15.816ZM 15.816 17.564L 16.27 18.455L 15.816 17.564ZM 15.816 0.435974L 16.27 -0.455033L 15.816 0.435974ZM 17.564 2.18404L 16.673 2.63803L 17.564 2.18404ZM 2.18404 0.435974L 1.73005 -0.455033L 2.18404 0.435974ZM 0.435974 2.18404L -0.455033 1.73005L 0.435974 2.18404ZM 6.4 1L 11.6 1L 11.6 -1L 6.4 -1L 6.4 1ZM 17 6.4L 17 11.6L 19 11.6L 19 6.4L 17 6.4ZM 11.6 17L 6.4 17L 6.4 19L 11.6 19L 11.6 17ZM 1 11.6L 1 6.4L -1 6.4L -1 11.6L 1 11.6ZM 6.4 17C 5.26339 17 4.47108 16.9992 3.85424 16.9488C 3.24907 16.8994 2.90138 16.8072 2.63803 16.673L 1.73005 18.455C 2.32234 18.7568 2.96253 18.8826 3.69138 18.9422C 4.40855 19.0008 5.2964 19 6.4 19L 6.4 17ZM -1 11.6C -1 12.7036 -1.00078 13.5914 -0.942182 14.3086C -0.882633 15.0375 -0.75682 15.6777 -0.455033 16.27L 1.32698 15.362C 1.19279 15.0986 1.10062 14.7509 1.05118 14.1458C 1.00078 13.5289 1 12.7366 1 11.6L -1 11.6ZM 2.63803 16.673C 2.07354 16.3854 1.6146 15.9265 1.32698 15.362L -0.455033 16.27C 0.0243343 17.2108 0.789237 17.9757 1.73005 18.455L 2.63803 16.673ZM 17 11.6C 17 12.7366 16.9992 13.5289 16.9488 14.1458C 16.8994 14.7509 16.8072 15.0986 16.673 15.362L 18.455 16.27C 18.7568 15.6777 18.8826 15.0375 18.9422 14.3086C 19.0008 13.5914 19 12.7036 19 11.6L 17 11.6ZM 11.6 19C 12.7036 19 13.5914 19.0008 14.3086 18.9422C 15.0375 18.8826 15.6777 18.7568 16.27 18.455L 15.362 16.673C 15.0986 16.8072 14.7509 16.8994 14.1458 16.9488C 13.5289 16.9992 12.7366 17 11.6 17L 11.6 19ZM 16.673 15.362C 16.3854 15.9265 15.9265 16.3854 15.362 16.673L 16.27 18.455C 17.2108 17.9757 17.9757 17.2108 18.455 16.27L 16.673 15.362ZM 11.6 1C 12.7366 1 13.5289 1.00078 14.1458 1.05118C 14.7509 1.10062 15.0986 1.19279 15.362 1.32698L 16.27 -0.455033C 15.6777 -0.75682 15.0375 -0.882633 14.3086 -0.942182C 13.5914 -1.00078 12.7036 -1 11.6 -1L 11.6 1ZM 19 6.4C 19 5.2964 19.0008 4.40855 18.9422 3.69138C 18.8826 2.96253 18.7568 2.32234 18.455 1.73005L 16.673 2.63803C 16.8072 2.90138 16.8994 3.24907 16.9488 3.85424C 16.9992 4.47108 17 5.26339 17 6.4L 19 6.4ZM 15.362 1.32698C 15.9265 1.6146 16.3854 2.07354 16.673 2.63803L 18.455 1.73005C 17.9757 0.789237 17.2108 0.0243343 16.27 -0.455033L 15.362 1.32698ZM 6.4 -1C 5.2964 -1 4.40855 -1.00078 3.69138 -0.942182C 2.96253 -0.882633 2.32234 -0.75682 1.73005 -0.455033L 2.63803 1.32698C 2.90138 1.19279 3.24907 1.10062 3.85424 1.05118C 4.47108 1.00078 5.26339 1 6.4 1L 6.4 -1ZM 1 6.4C 1 5.26339 1.00078 4.47108 1.05118 3.85424C 1.10062 3.24907 1.19279 2.90138 1.32698 2.63803L -0.455033 1.73005C -0.75682 2.32234 -0.882633 2.96253 -0.942182 3.69138C -1.00078 4.40855 -1 5.2964 -1 6.4L 1 6.4ZM 1.73005 -0.455033C 0.789237 0.0243343 0.0243343 0.789237 -0.455033 1.73005L 1.32698 2.63803C 1.6146 2.07354 2.07354 1.6146 2.63803 1.32698L 1.73005 -0.455033Z"/>
<path id="path2_stroke" d="M 0.707107 1.29289C 0.316583 0.902369 -0.316583 0.902369 -0.707107 1.29289C -1.09763 1.68342 -1.09763 2.31658 -0.707107 2.70711L 0.707107 1.29289ZM 2 4L 1.29289 4.70711C 1.68342 5.09763 2.31658 5.09763 2.70711 4.70711L 2 4ZM 6.70711 0.707107C 7.09763 0.316583 7.09763 -0.316583 6.70711 -0.707107C 6.31658 -1.09763 5.68342 -1.09763 5.29289 -0.707107L 6.70711 0.707107ZM -0.707107 2.70711L 1.29289 4.70711L 2.70711 3.29289L 0.707107 1.29289L -0.707107 2.70711ZM 2.70711 4.70711L 6.70711 0.707107L 5.29289 -0.707107L 1.29289 3.29289L 2.70711 4.70711Z"/>
</defs>
</svg>
