<svg width="16" height="16" viewBox="0 0 16 16" version="1.1" xmlns="http://www.w3.org/2000/svg" xmlns:xlink="http://www.w3.org/1999/xlink">
<title>clear</title>
<desc>Created using Figma</desc>
<g id="Canvas" transform="translate(-4562 -2247)">
<g id="clear">
<use xlink:href="#path0_fill" transform="translate(4562 2247)" fill="#A0B0B9"/>
</g>
</g>
<defs>
<path id="path0_fill" fill-rule="evenodd" d="M 8 0C 3.58154 0 0 3.58179 0 8C 0 12.4182 3.58154 16 8 16C 12.4185 16 16 12.4182 16 8C 16 3.58179 12.4185 0 8 0ZM 6.12939 10.8059L 7.99951 8.93481L 9.87109 10.8059C 10.0381 10.9729 10.2817 11.0381 10.5098 10.9768C 10.6367 10.9429 10.748 10.8726 10.8325 10.7781C 10.8999 10.7021 10.9502 10.6104 10.9775 10.5088C 11.0176 10.3589 11.0029 10.2024 10.9409 10.0654C 10.9087 9.99365 10.8633 9.92725 10.8062 9.86987L 8.93604 7.99976L 10.8062 6.12964C 10.9731 5.9624 11.0381 5.71875 10.9771 5.49048C 10.9155 5.26221 10.7373 5.08398 10.5088 5.02295C 10.2803 4.96191 10.0371 5.02734 9.87012 5.19458L 7.99951 7.06372L 6.12939 5.1936C 5.87109 4.9353 5.45215 4.93555 5.19385 5.19409C 4.93604 5.45239 4.93604 5.87134 5.19434 6.12964L 7.06348 7.99976L 5.19336 9.87085C 4.93506 10.1294 4.93555 10.5483 5.19385 10.8064C 5.45264 11.0647 5.87158 11.0645 6.12939 10.8059Z"/>
</defs>
</svg>
