<svg width="40" height="24" viewBox="0 0 40 24" version="1.1" xmlns="http://www.w3.org/2000/svg" xmlns:xlink="http://www.w3.org/1999/xlink">
<title>Page 1</title>
<desc>Created using Figma</desc>
<g id="Canvas" transform="translate(-4775 -4911)">
<g id="Rectangle 9">
<use xlink:href="#path0_fill" transform="translate(4775 4911)" fill="#BCCDD6"/>
</g>
<g id="Rectangle 10">
<use xlink:href="#path1_fill" transform="translate(4777 4913)" fill="#FFFFFF"/>
</g>
</g>
<defs>
<path id="path0_fill" fill-rule="evenodd" d="M 0 12C 0 5.37258 5.37258 0 12 0L 28 0C 34.6274 0 40 5.37258 40 12C 40 18.6274 34.6274 24 28 24L 12 24C 5.37258 24 0 18.6274 0 12Z"/>
<path id="path1_fill" fill-rule="evenodd" d="M 0 10C 0 4.47715 4.47715 0 10 0C 15.5228 0 20 4.47715 20 10C 20 15.5228 15.5228 20 10 20C 4.47715 20 0 15.5228 0 10Z"/>
</defs>
</svg>
